<svg id="Outline" height="512" viewBox="0 0 512 512" width="512" xmlns="http://www.w3.org/2000/svg"><path d="m456 48h-48v-8a24 24 0 0 0 -48 0v8h-80v-8a24 24 0 0 0 -48 0v8h-80v-8a24 24 0 0 0 -48 0v8h-48a40.045 40.045 0 0 0 -40 40v368a40.045 40.045 0 0 0 40 40h400a40.045 40.045 0 0 0 40-40v-368a40.045 40.045 0 0 0 -40-40zm-80-8a8 8 0 0 1 16 0v48a8 8 0 0 1 -16 0zm-128 0a8 8 0 0 1 16 0v48a8 8 0 0 1 -16 0zm-128 0a8 8 0 0 1 16 0v48a8 8 0 0 1 -16 0zm-64 24h48v24a24 24 0 0 0 48 0v-24h80v24a24 24 0 0 0 48 0v-24h80v24a24 24 0 0 0 48 0v-24h48a24.028 24.028 0 0 1 24 24v56h-448v-56a24.028 24.028 0 0 1 24-24zm400 416h-400a24.028 24.028 0 0 1 -24-24v-296h448v296a24.028 24.028 0 0 1 -24 24z"/><path d="m440 216h-32a8 8 0 0 0 -8 8v32a8 8 0 0 0 8 8h32a8 8 0 0 0 8-8v-32a8 8 0 0 0 -8-8zm-8 32h-16v-16h16z"/><path d="m280 376h-32a8 8 0 0 0 -8 8v32a8 8 0 0 0 8 8h32a8 8 0 0 0 8-8v-32a8 8 0 0 0 -8-8zm-8 32h-16v-16h16z"/><path d="m200 216h-32a8 8 0 0 0 -8 8v32a8 8 0 0 0 8 8h32a8 8 0 0 0 8-8v-32a8 8 0 0 0 -8-8zm-8 32h-16v-16h16z"/><path d="m120 296h-32a8 8 0 0 0 -8 8v32a8 8 0 0 0 8 8h32a8 8 0 0 0 8-8v-32a8 8 0 0 0 -8-8zm-8 32h-16v-16h16z"/><path d="m200 296h-32a8 8 0 0 0 -8 8v32a8 8 0 0 0 8 8h32a8 8 0 0 0 8-8v-32a8 8 0 0 0 -8-8zm-8 32h-16v-16h16z"/><path d="m120 376h-32a8 8 0 0 0 -8 8v32a8 8 0 0 0 8 8h32a8 8 0 0 0 8-8v-32a8 8 0 0 0 -8-8zm-8 32h-16v-16h16z"/><path d="m200 376h-32a8 8 0 0 0 -8 8v32a8 8 0 0 0 8 8h32a8 8 0 0 0 8-8v-32a8 8 0 0 0 -8-8zm-8 32h-16v-16h16z"/><path d="m369.208 248.983-40-6.112-17.966-38.271a8 8 0 0 0 -14.484 0l-17.958 38.271-40 6.112a8 8 0 0 0 -4.518 13.5l29.181 29.907-6.9 42.326a8 8 0 0 0 11.753 8.284l35.684-19.724 35.684 19.724a8 8 0 0 0 11.766-8.289l-6.9-42.326 29.181-29.907a8 8 0 0 0 -4.518-13.5zm-38.934 35.117a8 8 0 0 0 -2.17 6.875l4.9 30.051-25.136-13.9a8 8 0 0 0 -7.74 0l-25.136 13.9 4.9-30.051a8 8 0 0 0 -2.17-6.875l-21.122-21.652 28.833-4.4a8 8 0 0 0 6.033-4.509l12.534-26.711 12.535 26.706a8 8 0 0 0 6.033 4.509l28.833 4.4z"/><path d="m440 296h-32a8 8 0 0 0 -8 8v32a8 8 0 0 0 8 8h32a8 8 0 0 0 8-8v-32a8 8 0 0 0 -8-8zm-8 32h-16v-16h16z"/><path d="m440 376h-32a8 8 0 0 0 -8 8v32a8 8 0 0 0 8 8h32a8 8 0 0 0 8-8v-32a8 8 0 0 0 -8-8zm-8 32h-16v-16h16z"/><path d="m360 376h-32a8 8 0 0 0 -8 8v32a8 8 0 0 0 8 8h32a8 8 0 0 0 8-8v-32a8 8 0 0 0 -8-8zm-8 32h-16v-16h16z"/></svg>